User Type,Username,Date,Text
,c3k1,2010-04-06T20:40Z,"Good quality (much better than the ElWoOd's torrent). Here is the details:

Format                           : AVI
Format/Info                      : Audio Video Interleave
Format profile                   : OpenDML
File size                        : 1.51 GiB
Duration                         : 2h 47mn
Overall bit rate                 : 1 288 Kbps

Video
ID                               : 0
Format                           : MPEG-4 Visual
Format profile                   : Simple@L3
Format settings, BVOP            : No
Format settings, QPel            : No
Format settings, GMC             : No warppoints
Format settings, Matrix          : Default (H.263)
Codec ID                         : XVID
Codec ID/Hint                    : XviD
Duration                         : 2h 47mn
Bit rate                         : 1 091 Kbps
Width                            : 560 pixels
Height                           : 416 pixels
Display aspect ratio             : 4:3
Frame rate                       : 25.000 fps
Resolution                       : 8 bits
Colorimetry                      : 4:2:0
Scan type                        : Progressive
Bits/(Pixel*Frame)               : 0.187
Stream size                      : 1.27 GiB (85%)
Writing library                  : ZJMedia MPEG Encoder

Audio
ID                               : 1
Format                           : MPEG Audio
Format version                   : Version 1
Format profile                   : Layer 3
Format_Settings_Mode             : Joint stereo
Format_Settings_ModeExtension    : MS Stereo
Codec ID                         : 55
Codec ID/Hint                    : MP3
Duration                         : 2h 47mn
Bit rate mode                    : Constant
Bit rate                         : 192 Kbps
Channel(s)                       : 2 channels
Sampling rate                    : 48.0 KHz
Stream size                      : 230 MiB (15%)
Alignment                        : Split accross interleaves
Interleave, duration             : 1000 ms (25.00 video frames)"
,krabbycz,2011-12-20T23:55Z,"Thank you so much for this quality sharing ""sheila6"". Very good visuals and sound for me. Even it is compatible with my stand alone DVD-DivX player. Cheers."
,bobos277,2012-01-13T17:46Z,Thanks sheila6 !!!!!!!!
,bobos277,2012-01-13T17:47Z,THANKS sheila6 !!!!!!!!!!!!!
